{
  "accessors": [
    {
      "bufferView": 2,
      "componentType": 5126,
      "count": 652,
      "max": [
        30,
        30,
        209.01171875
      ],
      "min": [
        -30,
        -30,
        -2.618619441986084
      ],
      "type": "VEC3"
    },
    {
      "bufferView": 2,
      "byteOffset": 7824,
      "componentType": 5126,
      "count": 652,
      "max": [
        0.99779915809631348,
        0.99779915809631348,
        1
      ],
      "min": [
        -0.99779915809631348,
        -0.99779915809631348,
        -1
      ],
      "type": "VEC3"
    },
    {
      "bufferView": 3,
      "componentType": 5126,
      "count": 652,
      "max": [
        1,
        1,
        0.99083679914474487,
        1
      ],
      "min": [
        -0.99994492530822754,
        -0.99999970197677612,
        -0.99083679914474487,
        -1
      ],
      "type": "VEC4"
    },
    {
      "bufferView": 1,
      "componentType": 5126,
      "count": 652,
      "max": [
        0.8511512279510498,
        0.98175239562988281
      ],
      "min": [
        0.14846931397914886,
        0.026226524263620377
      ],
      "type": "VEC2"
    },
    {
      "bufferView": 0,
      "componentType": 5125,
      "count": 2688,
      "max": [
        651
      ],
      "min": [
        0
      ],
      "type": "SCALAR"
    }
  ],
  "asset": {
    "extras": {
      "author": "Veysel Gök (https://sketchfab.com/veysel.gok.vg)",
      "license": "CC-BY-4.0 (http://creativecommons.org/licenses/by/4.0/)",
      "source": "https://sketchfab.com/models/36b4645f36c94b2f9575f664d1ad76a4",
      "title": "Battery - Batarya"
    },
    "generator": "Sketchfab-3.20.7",
    "version": "2.0"
  },
  "bufferViews": [
    {
      "buffer": 0,
      "byteLength": 10752,
      "byteOffset": 0,
      "name": "floatBufferViews",
      "target": 34963
    },
    {
      "buffer": 0,
      "byteLength": 5216,
      "byteOffset": 10752,
      "byteStride": 8,
      "name": "floatBufferViews",
      "target": 34962
    },
    {
      "buffer": 0,
      "byteLength": 15648,
      "byteOffset": 15968,
      "byteStride": 12,
      "name": "floatBufferViews",
      "target": 34962
    },
    {
      "buffer": 0,
      "byteLength": 10432,
      "byteOffset": 31616,
      "byteStride": 16,
      "name": "floatBufferViews",
      "target": 34962
    }
  ],
  "buffers": [
    {
      "byteLength": 42048,
      "uri": "scene.bin"
    }
  ],
  "images": [
    {
      "uri": "textures/Material_25_baseColor.png"
    }
  ],
  "materials": [
    {
      "doubleSided": true,
      "emissiveFactor": [
        0,
        0,
        0
      ],
      "name": "Material_25",
      "pbrMetallicRoughness": {
        "baseColorFactor": [
          1,
          1,
          1,
          1
        ],
        "baseColorTexture": {
          "index": 0,
          "texCoord": 0
        },
        "metallicFactor": 0.65000000000000002,
        "roughnessFactor": 0.28830030490000003
      }
    }
  ],
  "meshes": [
    {
      "name": "Cylinder001_Material #25_0",
      "primitives": [
        {
          "attributes": {
            "NORMAL": 1,
            "POSITION": 0,
            "TANGENT": 2,
            "TEXCOORD_0": 3
          },
          "indices": 4,
          "material": 0,
          "mode": 4
        }
      ]
    }
  ],
  "nodes": [
    {
      "children": [
        1
      ],
      "name": "RootNode (gltf orientation matrix)",
      "rotation": [
        -0.70710678118654746,
        -0,
        -0,
        0.70710678118654757
      ]
    },
    {
      "children": [
        2
      ],
      "name": "RootNode (model correction matrix)"
    },
    {
      "children": [
        3
      ],
      "matrix": [
        1,
        0,
        0,
        0,
        0,
        0,
        1,
        0,
        0,
        -1,
        0,
        0,
        0,
        0,
        0,
        1
      ],
      "name": "82f798b940c14613abaebf79e0239640.fbx"
    },
    {
      "children": [
        4
      ],
      "name": "RootNode"
    },
    {
      "children": [
        5
      ],
      "matrix": [
        0.1898731142282486,
        0,
        0,
        0,
        0,
        4.21603006346968e-17,
        -0.1898731142282486,
        0,
        0,
        0.1898731142282486,
        4.21603006346968e-17,
        0,
        0,
        0,
        0,
        1
      ],
      "name": "Cylinder001"
    },
    {
      "mesh": 0,
      "name": "Cylinder001_Material #25_0"
    }
  ],
  "samplers": [
    {
      "magFilter": 9729,
      "minFilter": 9987,
      "wrapS": 10497,
      "wrapT": 10497
    }
  ],
  "scene": 0,
  "scenes": [
    {
      "name": "OSG_Scene",
      "nodes": [
        0
      ]
    }
  ],
  "textures": [
    {
      "sampler": 0,
      "source": 0
    }
  ]
}

